<?xml version="1.0"?>


<svg xmlns:dc="http://purl.org/dc/elements/1.1/" xmlns:cc="http://creativecommons.org/ns#" xmlns:rdf="http://www.w3.org/1999/02/22-rdf-syntax-ns#" xmlns:svg="http://www.w3.org/2000/svg" xmlns="http://www.w3.org/2000/svg" xmlns:sodipodi="http://sodipodi.sourceforge.net/DTD/sodipodi-0.dtd" xmlns:inkscape="http://www.inkscape.org/namespaces/inkscape" id="svg2985" version="1.1" width="2400" height="477">
  <metadata id="metadata2991">
    <RDF>
      <Work>
        <format>image/svg+xml</format>
        <type></type>
        <title></title>
      </Work>
    </RDF>
  </metadata>
  <defs id="defs2989"></defs>
  <namedview pagecolor="#ffffff" bordercolor="#666666" borderopacity="1" objecttolerance="10" gridtolerance="10" guidetolerance="10" id="namedview2987" showgrid="false" fit-margin-top="0" fit-margin-left="0" fit-margin-right="0" fit-margin-bottom="0"></namedview>
  <g id="g3598" fill="#ffffff">
    <path id="path3525" fill="#ffffff" d="m 115.44942,426.73175 0,50.26825 L 0,381.82544 l 114.92891,-95.40601 0,49.82228 152.60664,1.65876 c 0,0 16.35071,0.17052 16.35071,-13.50711 0,-15.88409 -20.14218,-24.88151 -20.14218,-24.88151 l -76.30332,-36.49289 c 0,0 -79.38389,-32.45897 -79.38389,-105.21327 0,-105.814575 115.97199,-108.420976 115.97199,-108.420976 l 148.45891,1.508047 0,91.273119 -140.24843,-1.96319 c 0,0 -16.75609,-0.42777 -16.75609,15.4156 0,12.59158 15.66694,19.10194 15.66694,19.10194 l 108.66024,53.4646 c 0,0 52.1327,25.65762 52.1327,93.83887 0,108.72554 -115.16588,107.109 -115.16588,107.109 z" style="fill:#ffca08;fill-opacity:1;stroke:none"></path>
    <path id="path3527" d="m 412.53481,50.054957 111.2604,0 0,266.756873 c 0,0 -0.5712,12.90194 13.06975,20.77754 7.22393,4.17074 17.4629,6.70244 31.50144,6.70244 13.13917,0 22.14005,-2.71629 29.82583,-9.38341 9.87145,-8.56311 11.05902,-20.1073 11.05902,-20.1073 l 0,-264.746143 110.59016,0 0,279.826613 c 0,0 -6.19796,55.74525 -51.27363,81.7697 -31.10831,17.96039 -49.87037,26.13949 -100.20138,26.13949 -38.82439,0 -85.32324,-8.17911 -116.62235,-33.84729 -37.00127,-30.34448 -39.20924,-75.40238 -39.20924,-75.40238 z" style="fill:#ffca08;fill-opacity:1;stroke:none"></path>
    <path id="path3529" d="m 1092.1562,50.0625 0,278.46875 c 0,0 2.2175,45.06177 39.2188,75.40625 31.2991,25.66818 70.4256,33.84375 109.25,33.84375 39.9359,0 60.0018,-5.18196 82.125,-16.28125 22.1331,11.10799 42.2053,16.28125 82.1562,16.28125 38.8244,0 77.9509,-8.17557 109.25,-33.84375 37.0013,-30.34448 39.2188,-75.40625 39.2188,-75.40625 l 0,-278.46875 -111.2812,0 0,266.75 c 0,0 0.3304,12.62039 -11.5313,19.46875 -7.224,4.17073 -10.9236,3.625 -22,3.625 -8.6368,0 -14.8689,-0.0437 -21.375,-5.6875 -9.8714,-8.56319 -8.9375,-18.25 -8.9375,-18.25 l -0.375,-265.90625 -110.2188,0 -0.375,265.90625 c 0,0 0.9339,9.68681 -8.9374,18.25 -6.5062,5.6438 -12.7383,5.6875 -21.375,5.6875 -11.0764,0 -14.8073,0.54573 -22.0313,-3.625 -11.8617,-6.84836 -11.5,-19.46875 -11.5,-19.46875 l 0,-266.75 z" style="fill:#009845;fill-opacity:1;stroke:none"></path>
    <path id="path3548" d="m 1741.2812,39.15625 c -38.8243,0 -82.9509,7.70682 -114.25,33.375 -37.0012,30.34448 -41.5624,78.25 -41.5624,78.25 l 0,278.46875 111.25,0 0,-108.40625 85.4687,0 0,108.40625 110.5937,0 0,-279.8125 c 0,0 -6.2055,-57.163047 -51.2812,-83.1875 -31.1083,-17.96039 -49.8878,-27.09375 -100.2188,-27.09375 z m 0,95.875 c 13.1392,0 22.158,2.70788 29.8438,9.375 9.8714,8.56311 11.0625,20.09375 11.0625,20.09375 l 0,67.53125 -85.4687,0 0,-69.53125 c 0,0 -0.5785,-12.90565 13.0624,-20.78125 7.2239,-4.17074 17.4614,-6.6875 31.5,-6.6875 z" style="fill:#009845;fill-opacity:1;stroke:none"></path>
    <path id="path3551" d="m 755.84375,50.0625 0,378.6875 216.40625,0 c 0,0 40.5376,-7.53739 65.5312,-32.53125 16.7754,-16.77535 29.8126,-36.40658 29.8126,-83.53125 0,-23.92125 -10.6139,-47.37163 -30.5938,-66.65625 -7.9251,-7.64934 -16.1824,-13.05045 -23.6562,-16.84375 5.8255,-3.40372 11.9418,-7.91061 17.9687,-13.9375 19.6353,-19.63534 26.3437,-47.95375 26.3437,-71.875 0,-31.01092 -6.3634,-42.55169 -20.3437,-61.71875 C 1017.0553,53.883344 973.65625,50.0625 973.65625,50.0625 z m 110.4375,84.21875 57.4375,0 c 0,0 7.66509,-0.33491 15.46875,7.46875 4.96777,4.96777 7.3125,16.99819 7.3125,25.09375 0,8.6497 -3.12853,19.48655 -6.375,23.9375 -6.13028,8.40472 -17.1875,10.75 -17.1875,10.75 l -56.65625,0 z m 0,138.5 56.65625,0 c 0,0 15.08847,-0.24847 21.21875,8.15625 3.24647,4.45095 10.875,10.99662 10.875,29.125 0,14.25669 -5.18848,23.18848 -10.15625,28.15625 -7.80366,7.80361 -21.15625,7.71875 -21.15625,7.71875 l -57.4375,0 z" style="fill:#ffca08;fill-opacity:1;stroke:none"></path>
    <path id="path3564" d="m 2285.0312,0 0,47.96875 -59.4062,0 c -55.7957,-1.910523 -103.2011,7.90223 -109.6562,83.4375 l 0,72.78125 c 0,0 -1.1912,9.18689 -11.0626,17.75 -7.6858,6.66712 -16.7046,9.375 -29.8437,9.375 -14.0386,0 -24.2761,-2.51676 -31.5,-6.6875 -13.6409,-7.8756 -13.0625,-20.78125 -13.0625,-20.78125 l 0,-153.96875 -111.25,0 0,165.6875 c 0,0 4.5612,47.90552 41.5625,78.25 16.1599,13.2526 35.7458,21.72491 56.25,26.8125 l 0,109.46875 112.7813,0 0,-109 c 16.0091,-4.51456 29.4842,-12.29891 45.4374,-21 48.9502,-26.69784 50.3438,-83.1875 50.3438,-83.1875 l 0,-66.65625 c 0.6314,-3.18212 1.0386,-6.45931 8.125,-6.875 l 50.5938,0 0,47.4375 L 2400,95.71875 2285.0312,0 z" style="fill:#009845;fill-opacity:1;stroke:none"></path>
    <g transform="matrix(1.5319461,0,0,1.5319461,2160.3457,362.61125)" id="g3581">
      <g id="text3583" style="font-size:45px;font-style:normal;font-weight:normal;text-align:start;text-anchor:start;fill:black;font-family:Helvetica">
        <path id="path3595" style="font-size:45px;font-style:normal;font-weight:normal;text-align:start;text-anchor:start;fill:#009845;fill-opacity:1;font-family:Helvetica" d="m 16.649786,42.677453 c 4.771792,-0.09469 8.795486,-1.70529 12.071094,-4.831813 3.27555,-3.126515 4.981777,-7.200834 5.118684,-12.222967 C 33.702657,20.643696 31.996431,16.595627 28.72088,13.478454 25.445272,10.361337 21.421578,8.7544845 16.649786,8.657891 c -4.81495,0.096594 -8.864894,1.703447 -12.1498439,4.820563 -3.284959,3.117173 -4.99493523,7.165242 -5.12993399,12.144219 0.13499876,5.022133 1.84497499,9.096451 5.12993399,12.222966 3.2849499,3.126523 7.3348939,4.737126 12.1498439,4.831814 z M 2.7899641,25.622673 c 0.090934,-4.11274 1.4277904,-7.474568 4.0105737,-10.085496 2.5827697,-2.610875 5.8658492,-3.958981 9.8492482,-4.044323 3.940241,0.08534 7.19707,1.433449 9.770499,4.044324 2.573375,2.610927 3.906481,5.972755 3.999323,10.085495 -0.09284,4.175582 -1.425947,7.569285 -3.999323,10.181118 -2.573428,2.611844 -5.830258,3.958076 -9.770499,4.038698 C 12.666387,39.761868 9.3833073,38.415637 6.8005371,35.803791 4.2177534,33.191958 2.880897,29.798255 2.7899641,25.622673 z m 10.2598679,1.349982 3.419956,0 5.174933,8.504891 3.329957,0 -5.579928,-8.639889 c 1.471835,-0.163108 2.679318,-0.669351 3.622453,-1.518731 0.943089,-0.849346 1.430582,-2.143078 1.462482,-3.8812 9.12e-4,-1.925578 -0.574705,-3.339309 -1.726853,-4.241196 -1.152194,-0.901838 -2.886545,-1.348082 -5.203058,-1.338732 l -7.469904,0 0,19.619748 2.969962,0 z m 0,-2.519967 0,-6.074922 4.049948,0 c 1.083717,-0.03185 2.054954,0.144397 2.913712,0.528744 0.858719,0.384393 1.312462,1.168132 1.361233,2.351219 -0.04127,1.452187 -0.521264,2.361549 -1.439982,2.728089 -0.918758,0.366574 -2.028742,0.522198 -3.329957,0.46687 z"></path>
      </g>
      <g id="text3585" style="font-size:45px;font-style:normal;font-weight:normal;text-align:start;text-anchor:start;fill:black;font-family:Helvetica"></g>
    </g>
  </g>
</svg>